<svg version="1.2" xmlns="http://www.w3.org/2000/svg" viewBox="0 0 390 326" width="390" height="326"><style>.a{fill:#231f20}.b{fill:#fff}.c{fill:#d1d3d4}.d{fill:none}.e{fill:#0a0a0a}</style><path fill-rule="evenodd" class="a" d="m49.2 213.2v9.1l110.8 102.3 228.5-78.3v-8.9z"/><path class="a" d="m160 325.3c-0.2 0-0.3-0.1-0.5-0.2l-110.8-102.3c-0.1-0.1-0.2-0.3-0.2-0.5v-9c0-0.2 0.1-0.4 0.2-0.5 0.1-0.1 0.3-0.2 0.5-0.2l339.3 24.2c0.4 0 0.7 0.3 0.6 0.7v8.9c0 0.3-0.2 0.6-0.5 0.7l-228.4 78.2c0 0-0.1 0-0.2 0zm-110.2-103.3l110.4 101.8 227.6-77.9v-7.9l-337.9-24v8z"/><path fill-rule="evenodd" class="b" d="m49.2 213.2l-47.7-163.5 235-48.3 33.5 143.9z"/><path class="a" d="m49.2 213.9c-0.1 0-0.2 0-0.3-0.1-0.2-0.1-0.3-0.2-0.3-0.4l-47.7-163.5c-0.1-0.2 0-0.4 0.1-0.6 0.1-0.2 0.3-0.3 0.5-0.3l235-48.3c0.4-0.1 0.7 0.2 0.8 0.5l33.5 143.9c0.1 0.4-0.1 0.7-0.5 0.8l-220.9 67.9zm-46.8-163.7l47.2 162.1 219.6-67.5-33.2-142.6z"/><path fill-rule="evenodd" class="b" d="m270 145.3l-220.8 67.9 111 99.7 228.3-75.5z"/><path class="a" d="m160.2 313.6c-0.2 0-0.3-0.1-0.5-0.2l-111-99.7c-0.2-0.2-0.3-0.4-0.2-0.7 0.1-0.2 0.2-0.4 0.5-0.5l220.8-67.9c0.2-0.1 0.5 0 0.6 0.1l118.5 92.1c0.2 0.2 0.3 0.4 0.3 0.7-0.1 0.3-0.2 0.5-0.5 0.5l-228.3 75.5c-0.1 0.1-0.1 0.1-0.2 0.1zm-109.7-100.1l109.8 98.6 226.7-75-117.1-91.1z"/><path fill-rule="evenodd" class="b" d="m266.4 158.1l-191.1 62.3 50.8 44.7 196.6-65.3z"/><path class="c" d="m126.1 265.8c-0.2 0-0.3-0.1-0.5-0.2l-50.8-44.7c-0.3-0.3-0.3-0.7-0.1-1 0.1-0.1 0.2-0.2 0.3-0.2l191.1-62.2c0.2-0.1 0.4 0 0.6 0.1l56.4 41.7c0.2 0.2 0.3 0.4 0.3 0.7 0 0.3-0.2 0.5-0.5 0.5l-196.6 65.3c0-0.1-0.1-0.1-0.2 0zm-49.4-45.2l49.6 43.6 194.9-64.7-55-40.6z"/><path fill-rule="evenodd" class="b" d="m279.7 224.7l-73.7 22.8 33.3 26 72.6-24.4z"/><path class="c" d="m239.3 274.2c-0.2 0-0.3-0.1-0.4-0.1l-33.4-26c-0.2-0.2-0.3-0.4-0.3-0.7 0-0.3 0.2-0.5 0.5-0.5l73.8-22.8c0.2-0.1 0.4 0 0.6 0.1l32.1 24.4c0.2 0.2 0.3 0.4 0.3 0.7 0 0.3-0.2 0.5-0.5 0.5l-72.5 24.4c0 0-0.1 0-0.2 0zm-31.8-26.4l32 25 70.9-23.9-30.8-23.4z"/><path fill-rule="evenodd" class="b" d="m56 199.8l-42.4-141.2 214.5-45.8 30.8 127.5z"/><path class="a" d="m56 200.5c-0.3 0-0.6-0.2-0.7-0.5l-42.4-141.2c-0.1-0.2 0-0.4 0.1-0.6 0.1-0.2 0.3-0.3 0.5-0.3l214.5-45.8c0.4-0.1 0.7 0.2 0.8 0.5l30.8 127.5c0.1 0.4-0.1 0.7-0.5 0.8l-202.9 59.5c-0.1 0.1-0.1 0.1-0.2 0.1zm-41.5-141.4l42 139.8 201.6-59.1-30.5-126.2z"/><path fill-rule="evenodd" class="d" d="m17.8 72.7l213.5-46.8"/><path class="a" d="m17.8 73.4c-0.4 0-0.7-0.3-0.7-0.7 0-0.3 0.2-0.6 0.5-0.7l213.5-46.8c0.4-0.1 0.8 0.1 0.9 0.4 0.1 0.4-0.1 0.8-0.4 0.9h-0.1l-213.5 46.9z"/><path fill-rule="evenodd" class="e" d="m27.8 65.7c-1.5 0-2.8-1.3-2.8-2.8 0-1.5 1.3-2.8 2.8-2.8 1.5 0 2.8 1.3 2.8 2.8 0 1.5-1.3 2.8-2.8 2.8z"/><path fill-rule="evenodd" class="c" d="m37.9 63.1c-1.5 0-2.8-1.3-2.8-2.8 0-1.5 1.3-2.8 2.8-2.8 1.5 0 2.8 1.3 2.8 2.8 0 1.5-1.3 2.8-2.8 2.8z"/><path fill-rule="evenodd" class="c" d="m47.6 60.9c-1.5 0-2.8-1.3-2.8-2.8 0-1.5 1.3-2.8 2.8-2.8 1.5 0 2.8 1.3 2.8 2.8 0 1.5-1.3 2.8-2.8 2.8z"/><path class="c" d="m68.6 82.9l130.8-30.7c2.9-0.7 5.7 1.1 6.4 4l1 4.2c0.7 2.9-1.1 5.7-4 6.4l-130.8 30.7c-2.9 0.7-5.7-1.1-6.4-4l-1-4.2c-0.6-2.8 1.2-5.7 4-6.4z"/><path class="b" d="m224.9 126c0 0-60 23.6-116.6 9.6-56.6-14-90.4-62.9-90.4-62.9l30.3 101.1c0 0 21.5 13.3 74.6 12.6 67.8-0.8 113.5-34.6 113.5-34.6l-15.5-26.5"/><path class="a" d="m119.3 187.2c-50.2 0-71.2-12.6-71.4-12.8-0.1-0.1-0.3-0.2-0.3-0.4l-30.4-101.1c-0.1-0.4 0.1-0.8 0.5-0.9 0.3-0.1 0.6 0 0.8 0.3 0.3 0.5 34.3 48.8 90 62.6 47.7 11.8 98.3-3.4 112.4-8.2l-0.6-1c-0.2-0.3-0.1-0.8 0.2-1 0.3-0.2 0.8-0.1 1 0.2l0.7 1.2c1.6-0.6 2.4-0.9 2.5-0.9 0.4-0.1 0.8 0 0.9 0.4 0.1 0.4 0 0.8-0.4 0.9-0.1 0-0.9 0.3-2.3 0.8l14 24.1c0.2 0.3 0.1 0.7-0.2 0.9-0.5 0.3-46.7 33.9-113.9 34.7zm-70.5-13.8c2.4 1.4 24.5 13 74 12.4 63-0.7 107.4-30.4 112.6-34.1l-13.9-23.7c-13.9 4.8-65.1 20.2-113.4 8.3-47.9-11.8-79.8-48.9-88.4-60z"/><path class="c" d="m140 161.9c-21.6 0-46.4-3.6-69-15.5-0.3-0.2-0.5-0.6-0.3-0.9 0.2-0.3 0.6-0.5 1-0.3 54.8 29 123.4 8 124.1 7.8 0.4-0.1 0.8 0.1 0.9 0.5 0.1 0.4-0.1 0.8-0.5 0.9-18.3 4.9-37.2 7.5-56.2 7.5z"/><path class="c" d="m127.9 175.2c-45.1 0-74.5-20.9-74.9-21.1-0.3-0.2-0.4-0.7-0.2-1 0.2-0.3 0.7-0.4 1-0.2 0.4 0.3 41 29 99.8 18.6 0.4-0.1 0.7 0.2 0.8 0.5 0.1 0.4-0.2 0.7-0.6 0.8-8.5 1.6-17.2 2.4-25.9 2.4z"/><path class="c" d="m83.2 140.4c-0.1 0-0.2 0-0.3-0.1-44.1-20-54.8-44.6-55-44.9-0.2-0.4 0-0.8 0.4-0.9 0.4-0.2 0.8 0 0.9 0.4 0 0.1 2.6 6.1 10.6 14.6 7.3 7.8 20.9 19.3 43.6 29.6 0.4 0.2 0.5 0.6 0.4 0.9-0.1 0.2-0.3 0.4-0.6 0.4z"/><path class="c" d="m162 148.3c-0.4 0-0.7-0.3-0.7-0.7 0-0.4 0.3-0.7 0.7-0.7 0.2 0 24.5-0.1 35.6-5.4 0.4-0.2 0.8 0 0.9 0.3 0.1 0.3 0 0.8-0.3 0.9-11.3 5.6-35.2 5.6-36.2 5.6z"/><path fill-rule="evenodd" class="b" d="m209.9 129.7l18.7 29 16.3-5.5-23.3-36z"/><path class="a" d="m228.6 159.4c-0.2 0-0.5-0.1-0.6-0.3l-18.8-29c-0.2-0.3-0.1-0.6 0.1-0.9l11.7-12.5c0.1-0.2 0.4-0.2 0.6-0.2 0.2 0 0.4 0.1 0.5 0.3l23.2 36c0.2 0.3 0.1 0.8-0.3 1h-0.1l-16.2 5.5c0.1 0.1 0 0.1-0.1 0.1zm-17.8-29.6l18.1 28.1 14.8-5-22.3-34.5z"/><path class="e" d="m297.8 139.6c0 0 0.3 21.4-12.1 36.9-12.4 15.5-50.9 23.2-50.9 23.2l12.1-47.1z"/><path class="a" d="m234.8 200.5c-0.2 0-0.4-0.1-0.5-0.2-0.2-0.2-0.2-0.4-0.2-0.7l12.1-47.1c0.1-0.2 0.3-0.4 0.5-0.5l50.9-13c0.2 0 0.4 0 0.6 0.1q0.3 0.2 0.3 0.6c0 0.2 0.2 21.8-12.3 37.3-12.5 15.5-49.7 23.2-51.3 23.5zm12.7-47.2l-11.8 45.6c6.4-1.4 38.4-9.1 49.4-22.8 10.7-13.4 11.9-31.4 12-35.5z"/><path class="e" d="m255.3 73.8c0 0-19.3-9.1-38.6-4.1-19.3 5-42.1 36.8-42.1 36.8l47.9 8.3z"/><path class="a" d="m222.5 115.5h-0.1l-47.9-8.3c-0.4-0.1-0.6-0.4-0.6-0.8 0-0.1 0.1-0.2 0.1-0.3 0.9-1.3 23.2-32.1 42.5-37.1 19.3-5 38.9 4.1 39.1 4.2 0.2 0.1 0.3 0.3 0.4 0.5 0.1 0.2 0 0.4-0.1 0.6l-32.9 41c-0.1 0.2-0.3 0.3-0.5 0.2zm-46.7-9.5l46.4 8 32-39.9c-3.9-1.6-20.7-8-37.3-3.7-17 4.3-37.2 30.3-41.1 35.6z"/><path class="e" d="m211.9 113.7c13.2-19.3 36.4-41 65.6-59.8 44.3-28.6 83.1-19 96.2-14.4 2.9 1 4.8 3.9 4.5 7-1.2 13.9-8.5 53.2-52.7 81.8-29.2 18.9-58.5 31-81.5 35.1 0 0-8.7-5.1-19.9-22.4-11.2-17.3-12.2-27.3-12.2-27.3z"/><path class="a" d="m244 164.2c-0.1 0-0.2 0-0.4-0.1-0.4-0.2-8.9-5.4-20.1-22.6-11.2-17.2-12.3-27.2-12.4-27.6 0-0.2 0-0.3 0.1-0.5 13.7-20 37.7-41.9 65.8-60 44-28.4 82.4-19.6 96.8-14.4 3.2 1.1 5.3 4.3 5 7.8-1.3 15.3-9 53.9-53 82.3-28.1 18.1-57.9 31-81.8 35.3zm-31.4-50.3c0.3 1.6 2.1 11.3 12.1 26.8 10 15.5 18 21.2 19.4 22.1 23.7-4.3 53.2-17 81-35 43.5-28.1 51.1-66.2 52.4-81.2 0.2-2.8-1.4-5.4-4.1-6.3-14.3-5-52.1-13.8-95.6 14.3-27.7 17.9-51.5 39.5-65.2 59.3z"/><path class="b" d="m378.2 46.6c-1.7 17.2-7.8 33.7-17.6 48l-37.9-58.8c17-3.1 34.6-1.8 51 3.7 2.9 1.1 4.8 4 4.5 7.1z"/><path class="a" d="m360.7 95.3c-0.2 0-0.5-0.1-0.6-0.3l-38-58.8c-0.1-0.2-0.1-0.4 0-0.7 0.1-0.2 0.3-0.4 0.5-0.4 23.8-4.1 42.4 0.6 51.4 3.8 3.2 1.1 5.3 4.3 5 7.8-0.8 9.5-4.2 28.4-17.7 48.4-0.2 0.1-0.4 0.2-0.6 0.2zm-36.8-59l36.8 57c12.9-19.4 16.1-37.6 16.9-46.8 0.2-2.8-1.4-5.4-4.1-6.3-8.7-3.1-26.6-7.7-49.6-3.9z"/><path fill-rule="evenodd" class="b" d="m307.8 112c-14.9 0-27-12.1-27-27 0-14.9 12.1-27 27-27 14.9 0 27 12.1 27 27 0 14.9-12.1 27-27 27z"/><path class="a" d="m307.9 112.7c-15.3 0-27.7-12.4-27.7-27.7 0-15.3 12.4-27.7 27.7-27.7 15.3 0 27.7 12.4 27.7 27.7 0 9.4-4.8 18.2-12.7 23.3-4.5 2.8-9.7 4.4-15 4.4zm-0.1-54c-14.6 0-26.4 11.8-26.4 26.4 0 14.6 11.8 26.4 26.4 26.4 14.6 0 26.4-11.8 26.4-26.4 0-12.4-8.7-23.1-20.8-25.8-1.9-0.4-3.7-0.6-5.6-0.6z"/><path fill-rule="evenodd" class="a" d="m307.8 101.7c-9.2 0-16.7-7.5-16.7-16.7 0-9.2 7.5-16.7 16.7-16.7 9.2 0 16.7 7.5 16.7 16.7 0 9.2-7.5 16.7-16.7 16.7z"/><path class="a" d="m307.9 102.4c-9.6 0-17.4-7.8-17.4-17.3 0-9.6 7.8-17.4 17.3-17.4 9.6 0 17.4 7.8 17.4 17.3 0 5.9-3 11.4-8 14.6-2.7 1.8-6 2.7-9.3 2.8zm-0.1-33.4c-3.1 0-6.1 0.9-8.6 2.6-7.4 4.8-9.6 14.7-4.8 22.1 4.8 7.4 14.7 9.6 22.1 4.8 7.4-4.8 9.6-14.7 4.8-22.1-3-4.6-8-7.4-13.5-7.4z"/><path class="b" d="m319 78.5c-0.3 0-0.5-0.1-0.6-0.4-0.2-0.4-5.4-9.4-16.2-4.4-0.3 0.2-0.8 0-0.9-0.3-0.2-0.3 0-0.8 0.3-0.9 12-5.5 17.9 4.9 18 5 0.2 0.3 0.1 0.8-0.3 0.9-0.1 0-0.2 0-0.3 0.1z"/><path class="b" d="m320.9 84.3c-0.4 0-0.7-0.4-0.7-0.8 0-0.9-0.1-1.8-0.5-2.6-0.2-0.3-0.1-0.8 0.3-1 0.3-0.2 0.8-0.1 1 0.3v0.1q0.8 1.5 0.6 3.3c-0.1 0.4-0.4 0.7-0.7 0.7z"/><path class="b" d="m220.4 112.9c-0.2 0-0.3-0.1-0.4-0.1-0.3-0.2-0.4-0.7-0.1-1 10-12 20.7-23.4 32-34.1 0.3-0.3 0.7-0.3 1 0 0.3 0.3 0.3 0.7 0 1-11.3 10.7-21.9 22-31.9 34-0.2 0-0.4 0.1-0.6 0.2z"/><path class="e" d="m251.8 132.1c-19.5 12.6-44.6 24.9-46.8 21.6-2.2-3.3 19.4-21.2 38.9-33.8 19.5-12.6 31.7-11.8 31.7-11.8 0 0-4.3 11.4-23.8 24z"/><path class="a" d="m206.6 154.8c-0.8 0.1-1.6-0.2-2.2-0.8-0.5-0.7-1.9-3 11.5-14.4 8.8-7.4 18-14.2 27.7-20.4 19.5-12.6 31.6-11.9 32.1-11.9 0.2 0 0.4 0.1 0.5 0.3 0.1 0.2 0.1 0.4 0.1 0.6-0.2 0.5-4.6 11.8-24.1 24.4-12.9 8.4-37.8 22.3-45.6 22.2zm68-46c-3.3 0.1-14.4 1.4-30.2 11.7-9.6 6.2-18.8 13-27.5 20.3-9.8 8.4-11.6 11.9-11.2 12.5 1.6 2.4 24.1-7.7 45.9-21.8 15.8-10.2 21.5-19.8 23-22.7z"/><path fill-rule="evenodd" class="e" d="m131.3 123.2l-3.5-3.6-5 0.7 2.5-4.4-2.3-4.5 5 1 3.6-3.6 0.6 5 4.4 2.3-4.5 2.2z"/><path fill-rule="evenodd" class="e" d="m177.1 127.7l-2.2-2.3-3 0.5 1.5-2.7-1.4-2.8 3 0.6 2.2-2.2 0.4 3.1 2.8 1.4-2.8 1.3z"/><path fill-rule="evenodd" class="e" d="m156.3 214.2l-7.3-4.3-7.7 3.6 1.8-8.3-5.8-6.2 8.5-0.9 4.1-7.4 3.4 7.8 8.3 1.6-6.3 5.6z"/><path fill-rule="evenodd" class="e" d="m105.2 162l-4.6-4.9-6.6 1 3.2-5.8-3-6 6.6 1.3 4.7-4.7 0.9 6.6 5.9 3.1-6.1 2.8z"/></svg>