<svg version="1.2" xmlns="http://www.w3.org/2000/svg" viewBox="0 0 124 124" width="124" height="124"><style>.a{fill:#0a0a0a}</style><path class="a" d="m38.5 86.7c0-13.3 5.4-25.3 14.2-33.9-4.7-2.1-10-3.4-15.5-3.4-20.6 0-37.4 16.7-37.4 37.3 0 20.6 16.8 37.3 37.4 37.3 5.5 0 10.8-1.2 15.5-3.4-8.8-8.6-14.2-20.6-14.2-33.9z"/><path class="a" d="m86.5 85.5c-13.2 0-25.2-5.5-33.9-14.3-2.1 4.7-3.3 10-3.3 15.5 0 20.6 16.7 37.3 37.2 37.3 20.7 0 37.4-16.7 37.4-37.3 0-5.5-1.3-10.8-3.5-15.5-8.6 8.8-20.6 14.3-33.9 14.3z"/><path class="a" d="m85.2 37.4c0-13.4-5.5-25.4-14.2-34 4.6-2.1 9.9-3.4 15.5-3.4 20.5 0 37.3 16.7 37.3 37.4 0 20.5-16.8 37.2-37.3 37.2-5.6 0-10.9-1.2-15.5-3.4 8.7-8.6 14.2-20.6 14.2-33.8z"/><path class="a" d="m37.2 38.7c13.2 0 25.2 5.3 33.8 14.2 2.2-4.8 3.5-10.1 3.5-15.5 0-20.7-16.8-37.4-37.3-37.4-20.6 0-37.4 16.7-37.4 37.4 0 5.4 1.3 10.7 3.5 15.5 8.6-8.9 20.6-14.2 33.9-14.2z"/></svg>