<svg version="1.2" xmlns="http://www.w3.org/2000/svg" viewBox="0 0 462 124" width="462" height="124"><style>.a{fill:#0a0a0a}</style><path class="a" d="m38.5 86.7c0-13.3 5.4-25.3 14.2-33.9-4.7-2.1-10-3.4-15.5-3.4-20.6 0-37.4 16.7-37.4 37.3 0 20.6 16.8 37.3 37.4 37.3 5.5 0 10.8-1.2 15.5-3.4-8.8-8.6-14.2-20.6-14.2-33.9z"/><path class="a" d="m86.5 85.5c-13.2 0-25.2-5.5-33.9-14.3-2.1 4.7-3.3 10-3.3 15.5 0 20.6 16.7 37.3 37.2 37.3 20.7 0 37.4-16.7 37.4-37.3 0-5.5-1.3-10.8-3.5-15.5-8.6 8.8-20.6 14.3-33.9 14.3z"/><path class="a" d="m85.2 37.4c0-13.4-5.5-25.4-14.2-34 4.6-2.1 9.9-3.4 15.5-3.4 20.5 0 37.3 16.7 37.3 37.4 0 20.5-16.8 37.2-37.3 37.2-5.6 0-10.9-1.2-15.5-3.4 8.7-8.6 14.2-20.6 14.2-33.8z"/><path class="a" d="m37.2 38.7c13.2 0 25.2 5.3 33.8 14.2 2.2-4.8 3.5-10.1 3.5-15.5 0-20.7-16.8-37.4-37.3-37.4-20.6 0-37.4 16.7-37.4 37.4 0 5.4 1.3 10.7 3.5 15.5 8.6-8.9 20.6-14.2 33.9-14.2z"/><path class="a" d="m152.9 50.7q2.3-5.6 6.6-9.6 3.9-3.9 10.2-6.4 6.2-2.4 13.1-2.4h14.2v9.7h-14q-5 0-8.8 1.7-4.1 1.6-6.7 4.3-2.7 2.6-4.3 6.6-1.5 3.7-1.5 8.3 0 4.6 1.5 8.3 1.5 3.8 4.3 6.7 2.6 2.5 6.7 4.2 4 1.5 8.8 1.5h14v9.7h-14.2q-7.1 0-13-2.3-6.1-2.6-10.3-6.5-4.3-4.1-6.6-9.7-2.5-5.9-2.5-12 0-6.5 2.5-12.1zm81.7 32.9q-1.9-0.4-3.6-1.2-3.5-1.6-6.2-4.5-2.6-2.7-4.1-6.7-1.4-3.9-1.4-8v-0.3-0.3q0-4.3 1.4-8.2 1.7-4.1 4.1-6.5 2.5-2.9 6.1-4.5 2.2-1 3.7-1.3v-9.5q-4.5 0.6-7.9 2.1-5.6 2.5-9.6 6.6-3.9 4-6.2 9.6-2.3 5.7-2.3 11.8v0.2 0.4q0 6.3 2.3 11.7 2 5.5 6.1 9.6 4.1 4.2 9.6 6.5 3.4 1.5 8 2.2zm34.7-20.7v-0.3q0-6.3-2.3-11.8-2.3-5.6-6.2-9.7-3.9-4.1-9.5-6.4-3.2-1.5-7.8-2.1v9.7l1.6 0.5q1.1 0.4 1.8 0.6 3.5 1.7 6.2 4.6 2.6 2.7 4.1 6.6 1.4 4 1.4 8.1v0.2 0.4q0 4.2-1.4 8.2-1.7 4.1-4.1 6.5-2.5 2.9-6.1 4.4-1.7 0.8-3.5 1.2v9.7q3.9-0.5 7.7-2.2 5.2-2.1 9.6-6.5 4.2-4.4 6.2-9.7 2.3-5.6 2.3-11.7zm55.9 12q-2.5 5.9-6.7 9.7-4.3 4.1-10.2 6.4-5.8 2.3-13.1 2.3h-14.2v-9.7h14.1q4.8 0 8.8-1.5 3.8-1.6 6.6-4.4 2.8-2.8 4.3-6.6 1.6-3.8 1.6-8.4 0-4.5-1.6-8.3-1.5-4-4.3-6.5-2.6-2.7-6.6-4.4-4.1-1.5-8.8-1.5h-14.1v-9.7h14.2q6.7 0 13 2.4 5.9 2.2 10.3 6.6 4.4 3.9 6.7 9.6 2.4 5.9 2.4 12 0 6.7-2.4 12zm21.6-42.3h45.4v9.7h-45.4zm0 51h45.3v9.7h-45.3zm0-25.8h41v9.6h-41zm61.6 35.4h10.6v-32.5l-10.6-14.9zm42.4-60.7v42l-30-42h-11.5l43.1 60.7h8.8v-60.7z"/></svg>