<svg version="1.2" xmlns="http://www.w3.org/2000/svg" viewBox="0 0 682 644" width="682" height="644"><style>.a{fill:#5b5b4b}</style><path class="a" d="m681.3 331.3c0 172.3-140.2 312.4-312.5 312.4-162 0.1-293.8-131.7-293.8-293.7 0-151.6 123.4-275 275-275 141.3 0 256.3 114.9 256.3 256.3 0 130.9-106.6 237.4-237.5 237.4-120.7 0-218.8-98.1-218.8-218.7 0-110.3 89.7-200 200-200 100 0 181.3 81.3 181.3 181.2 0 89.6-72.9 162.5-162.5 162.5-79.3 0-143.8-64.4-143.8-143.7 0-68.9 56.1-125 125-125 58.6 0 106.3 47.7 106.3 106.2 0 48.3-39.3 87.5-87.5 87.5-38 0-68.8-30.8-68.8-68.7h50c0 10.3 8.4 18.7 18.8 18.7 20.6 0 37.5-16.8 37.5-37.5 0-31-25.3-56.2-56.3-56.2-41.3 0-75 33.6-75 75 0 51.7 42.1 93.7 93.8 93.7 62 0 112.5-50.4 112.5-112.5 0-72.3-58.9-131.2-131.3-131.2-82.7 0-150 67.3-150 150 0 93.1 75.7 168.7 168.8 168.7 103.4 0 187.5-84.1 187.5-187.5 0-113.7-92.6-206.2-206.3-206.2-124 0-225 100.9-225 225 0 134.4 109.4 243.7 243.8 243.7 144.7 0 262.5-117.7 262.5-262.5 0-155-126.2-281.2-281.3-281.2-165.4 0-300 134.6-300 300v25h-50v-25c0-193 157-350 350-350 182.7 0 331.3 148.6 331.3 331.2z"/></svg>